{
    "asset" : {
        "generator" : "Khronos glTF Blender I/O v1.1.46",
        "version" : "2.0"
    },
    "scene" : 0,
    "scenes" : [
        {
            "name" : "Scene",
            "nodes" : [
                0,
                1,
                2,
                3,
                4
            ]
        }
    ],
    "nodes" : [
        {
            "name" : "Light",
            "rotation" : [
                0.16907575726509094,
                0.7558803558349609,
                -0.27217137813568115,
                0.570947527885437
            ],
            "translation" : [
                4.076245307922363,
                5.903861999511719,
                -1.0054539442062378
            ]
        },
        {
            "name" : "Camera",
            "rotation" : [
                0.483536034822464,
                0.33687159419059753,
                -0.20870360732078552,
                0.7804827094078064
            ],
            "translation" : [
                7.358891487121582,
                4.958309173583984,
                6.925790786743164
            ]
        },
        {
            "name" : "Platform_TopLeft",
            "rotation" : [
                0.7071068286895752,
                0,
                0,
                0.7071067094802856
            ]
        },
        {
            "mesh" : 0,
            "name" : "Platform_TopMiddle_Cube.001",
            "rotation" : [
                0.7071068286895752,
                0,
                0,
                0.7071067094802856
            ]
        },
        {
            "mesh" : 1,
            "name" : "Platform_TopLeft_Cube.001",
            "rotation" : [
                0.7071068286895752,
                0,
                0,
                0.7071067094802856
            ],
            "translation" : [
                -1.9966317415237427,
                -0.006912663113325834,
                0.0012890659272670746
            ]
        }
    ],
    "materials" : [
        {
            "doubleSided" : true,
            "emissiveFactor" : [
                0,
                0,
                0
            ],
            "name" : "LightBrown.002",
            "pbrMetallicRoughness" : {
                "baseColorFactor" : [
                    0.29378700256347656,
                    0.16583199799060822,
                    0.07106400281190872,
                    1
                ],
                "metallicFactor" : 0,
                "roughnessFactor" : 0.6732679605484009
            }
        },
        {
            "doubleSided" : true,
            "emissiveFactor" : [
                0,
                0,
                0
            ],
            "name" : "Green.002",
            "pbrMetallicRoughness" : {
                "baseColorFactor" : [
                    0.1527159959077835,
                    0.3834559917449951,
                    0.13963299989700317,
                    1
                ],
                "metallicFactor" : 0,
                "roughnessFactor" : 0.6732679605484009
            }
        },
        {
            "doubleSided" : true,
            "emissiveFactor" : [
                0,
                0,
                0
            ],
            "name" : "LightBrown.003",
            "pbrMetallicRoughness" : {
                "baseColorFactor" : [
                    0.29378700256347656,
                    0.16583199799060822,
                    0.07106400281190872,
                    1
                ],
                "metallicFactor" : 0,
                "roughnessFactor" : 0.6732679605484009
            }
        },
        {
            "doubleSided" : true,
            "emissiveFactor" : [
                0,
                0,
                0
            ],
            "name" : "Green.003",
            "pbrMetallicRoughness" : {
                "baseColorFactor" : [
                    0.1527159959077835,
                    0.3834559917449951,
                    0.13963299989700317,
                    1
                ],
                "metallicFactor" : 0,
                "roughnessFactor" : 0.6732679605484009
            }
        },
        {
            "doubleSided" : true,
            "emissiveFactor" : [
                0,
                0,
                0
            ],
            "name" : "LightBrown.005",
            "pbrMetallicRoughness" : {
                "baseColorFactor" : [
                    0.29378700256347656,
                    0.16583199799060822,
                    0.07106400281190872,
                    1
                ],
                "metallicFactor" : 0,
                "roughnessFactor" : 0.6732679605484009
            }
        },
        {
            "doubleSided" : true,
            "emissiveFactor" : [
                0,
                0,
                0
            ],
            "name" : "Green.004",
            "pbrMetallicRoughness" : {
                "baseColorFactor" : [
                    0.1527159959077835,
                    0.3834559917449951,
                    0.13963299989700317,
                    1
                ],
                "metallicFactor" : 0,
                "roughnessFactor" : 0.6732679605484009
            }
        }
    ],
    "meshes" : [
        {
            "name" : "Platform_TopMiddle_Cube.001",
            "primitives" : [
                {
                    "attributes" : {
                        "POSITION" : 0,
                        "NORMAL" : 1
                    },
                    "indices" : 2,
                    "material" : 0
                },
                {
                    "attributes" : {
                        "POSITION" : 3,
                        "NORMAL" : 4
                    },
                    "indices" : 5,
                    "material" : 1
                },
                {
                    "attributes" : {
                        "POSITION" : 6,
                        "NORMAL" : 7
                    },
                    "indices" : 8,
                    "material" : 2
                },
                {
                    "attributes" : {
                        "POSITION" : 9,
                        "NORMAL" : 10
                    },
                    "indices" : 11,
                    "material" : 3
                }
            ]
        },
        {
            "name" : "Platform_TopLeft_Cube.001",
            "primitives" : [
                {
                    "attributes" : {
                        "POSITION" : 12,
                        "NORMAL" : 13
                    },
                    "indices" : 14,
                    "material" : 4
                },
                {
                    "attributes" : {
                        "POSITION" : 15,
                        "NORMAL" : 16
                    },
                    "indices" : 17,
                    "material" : 5
                }
            ]
        }
    ],
    "accessors" : [
        {
            "bufferView" : 0,
            "componentType" : 5126,
            "count" : 98,
            "max" : [
                0.9999989867210388,
                1.6923049688339233,
                0.9999979734420776
            ],
            "min" : [
                -0.9999989867210388,
                -1.6923049688339233,
                -0.13779300451278687
            ],
            "type" : "VEC3"
        },
        {
            "bufferView" : 1,
            "componentType" : 5126,
            "count" : 98,
            "type" : "VEC3"
        },
        {
            "bufferView" : 2,
            "componentType" : 5123,
            "count" : 204,
            "type" : "SCALAR"
        },
        {
            "bufferView" : 3,
            "componentType" : 5126,
            "count" : 190,
            "max" : [
                0.9999989867210388,
                1.7458750009536743,
                -0.09149300307035446
            ],
            "min" : [
                -0.9999989867210388,
                -1.7458750009536743,
                -0.9999979734420776
            ],
            "type" : "VEC3"
        },
        {
            "bufferView" : 4,
            "componentType" : 5126,
            "count" : 190,
            "type" : "VEC3"
        },
        {
            "bufferView" : 5,
            "componentType" : 5123,
            "count" : 414,
            "type" : "SCALAR"
        },
        {
            "bufferView" : 6,
            "componentType" : 5126,
            "count" : 183,
            "max" : [
                2.856494665145874,
                1.6881792545318604,
                1.0073254108428955
            ],
            "min" : [
                1.0016536712646484,
                -1.6964306831359863,
                -0.25139951705932617
            ],
            "type" : "VEC3"
        },
        {
            "bufferView" : 7,
            "componentType" : 5126,
            "count" : 183,
            "type" : "VEC3"
        },
        {
            "bufferView" : 8,
            "componentType" : 5123,
            "count" : 309,
            "type" : "SCALAR"
        },
        {
            "bufferView" : 9,
            "componentType" : 5126,
            "count" : 363,
            "max" : [
                2.8982577323913574,
                1.741748332977295,
                -0.07768650352954865
            ],
            "min" : [
                1.0016556978225708,
                -1.749999761581421,
                -0.992670476436615
            ],
            "type" : "VEC3"
        },
        {
            "bufferView" : 10,
            "componentType" : 5126,
            "count" : 363,
            "type" : "VEC3"
        },
        {
            "bufferView" : 11,
            "componentType" : 5123,
            "count" : 579,
            "type" : "SCALAR"
        },
        {
            "bufferView" : 12,
            "componentType" : 5126,
            "count" : 183,
            "max" : [
                0.9999989867210388,
                1.6923049688339233,
                0.9999979734420776
            ],
            "min" : [
                -0.8548420071601868,
                -1.6923049688339233,
                -0.2587270140647888
            ],
            "type" : "VEC3"
        },
        {
            "bufferView" : 13,
            "componentType" : 5126,
            "count" : 183,
            "type" : "VEC3"
        },
        {
            "bufferView" : 14,
            "componentType" : 5123,
            "count" : 309,
            "type" : "SCALAR"
        },
        {
            "bufferView" : 15,
            "componentType" : 5126,
            "count" : 363,
            "max" : [
                0.9999970197677612,
                1.745874047279358,
                -0.08501400053501129
            ],
            "min" : [
                -0.8966050148010254,
                -1.745874047279358,
                -0.9999979734420776
            ],
            "type" : "VEC3"
        },
        {
            "bufferView" : 16,
            "componentType" : 5126,
            "count" : 363,
            "type" : "VEC3"
        },
        {
            "bufferView" : 17,
            "componentType" : 5123,
            "count" : 579,
            "type" : "SCALAR"
        }
    ],
    "bufferViews" : [
        {
            "buffer" : 0,
            "byteLength" : 1176,
            "byteOffset" : 0
        },
        {
            "buffer" : 0,
            "byteLength" : 1176,
            "byteOffset" : 1176
        },
        {
            "buffer" : 0,
            "byteLength" : 408,
            "byteOffset" : 2352
        },
        {
            "buffer" : 0,
            "byteLength" : 2280,
            "byteOffset" : 2760
        },
        {
            "buffer" : 0,
            "byteLength" : 2280,
            "byteOffset" : 5040
        },
        {
            "buffer" : 0,
            "byteLength" : 828,
            "byteOffset" : 7320
        },
        {
            "buffer" : 0,
            "byteLength" : 2196,
            "byteOffset" : 8148
        },
        {
            "buffer" : 0,
            "byteLength" : 2196,
            "byteOffset" : 10344
        },
        {
            "buffer" : 0,
            "byteLength" : 618,
            "byteOffset" : 12540
        },
        {
            "buffer" : 0,
            "byteLength" : 4356,
            "byteOffset" : 13160
        },
        {
            "buffer" : 0,
            "byteLength" : 4356,
            "byteOffset" : 17516
        },
        {
            "buffer" : 0,
            "byteLength" : 1158,
            "byteOffset" : 21872
        },
        {
            "buffer" : 0,
            "byteLength" : 2196,
            "byteOffset" : 23032
        },
        {
            "buffer" : 0,
            "byteLength" : 2196,
            "byteOffset" : 25228
        },
        {
            "buffer" : 0,
            "byteLength" : 618,
            "byteOffset" : 27424
        },
        {
            "buffer" : 0,
            "byteLength" : 4356,
            "byteOffset" : 28044
        },
        {
            "buffer" : 0,
            "byteLength" : 4356,
            "byteOffset" : 32400
        },
        {
            "buffer" : 0,
            "byteLength" : 1158,
            "byteOffset" : 36756
        }
    ],
    "buffers" : [
        {
            "byteLength" : 37916,
            "uri" : "data:application/octet-stream;base64,"
        }
    ]
}
