{
    "asset" : {
        "generator" : "Khronos glTF Blender I/O v1.1.46",
        "version" : "2.0"
    },
    "scene" : 0,
    "scenes" : [
        {
            "name" : "Scene",
            "nodes" : [
                0,
                1,
                2
            ]
        }
    ],
    "nodes" : [
        {
            "name" : "Light",
            "rotation" : [
                0.16907575726509094,
                0.7558803558349609,
                -0.27217137813568115,
                0.570947527885437
            ],
            "translation" : [
                4.076245307922363,
                5.903861999511719,
                -1.0054539442062378
            ]
        },
        {
            "name" : "Camera",
            "rotation" : [
                0.483536034822464,
                0.33687159419059753,
                -0.20870360732078552,
                0.7804827094078064
            ],
            "translation" : [
                7.358891487121582,
                4.958309173583984,
                6.925790786743164
            ]
        },
        {
            "mesh" : 0,
            "name" : "gun",
            "rotation" : [
                0.7071068286895752,
                0,
                0,
                0.7071067094802856
            ]
        }
    ],
    "materials" : [
        {
            "alphaMode" : "BLEND",
            "doubleSided" : true,
            "emissiveFactor" : [
                0,
                0,
                0
            ],
            "name" : "blinn1SG",
            "pbrMetallicRoughness" : {
                "baseColorFactor" : [
                    0.09000000357627869,
                    0.09000000357627869,
                    0.09000000357627869,
                    1
                ],
                "metallicFactor" : 0,
                "roughnessFactor" : 1
            }
        },
        {
            "doubleSided" : true,
            "emissiveFactor" : [
                0,
                0,
                0
            ],
            "name" : "mi_metallic_paint1SG",
            "pbrMetallicRoughness" : {
                "baseColorFactor" : [
                    0.800000011920929,
                    0.800000011920929,
                    0.800000011920929,
                    1
                ],
                "metallicFactor" : 0,
                "roughnessFactor" : 0.5
            }
        },
        {
            "alphaMode" : "BLEND",
            "doubleSided" : true,
            "emissiveFactor" : [
                0,
                0,
                0
            ],
            "name" : "lambert2SG",
            "pbrMetallicRoughness" : {
                "baseColorFactor" : [
                    0.36000001430511475,
                    0,
                    0,
                    1
                ],
                "metallicFactor" : 0,
                "roughnessFactor" : 1
            }
        }
    ],
    "meshes" : [
        {
            "name" : "gun",
            "primitives" : [
                {
                    "attributes" : {
                        "POSITION" : 0,
                        "NORMAL" : 1,
                        "TEXCOORD_0" : 2
                    },
                    "indices" : 3,
                    "material" : 0
                },
                {
                    "attributes" : {
                        "POSITION" : 4,
                        "NORMAL" : 5,
                        "TEXCOORD_0" : 6
                    },
                    "indices" : 7,
                    "material" : 1
                },
                {
                    "attributes" : {
                        "POSITION" : 8,
                        "NORMAL" : 9,
                        "TEXCOORD_0" : 10
                    },
                    "indices" : 11,
                    "material" : 2
                }
            ]
        }
    ],
    "accessors" : [
        {
            "bufferView" : 0,
            "componentType" : 5126,
            "count" : 11914,
            "max" : [
                1.959602952003479,
                11.990299224853516,
                -0.4300230145454407
            ],
            "min" : [
                -1.9717350006103516,
                -11.988778114318848,
                -15.500473976135254
            ],
            "type" : "VEC3"
        },
        {
            "bufferView" : 1,
            "componentType" : 5126,
            "count" : 11914,
            "type" : "VEC3"
        },
        {
            "bufferView" : 2,
            "componentType" : 5126,
            "count" : 11914,
            "type" : "VEC2"
        },
        {
            "bufferView" : 3,
            "componentType" : 5123,
            "count" : 55104,
            "type" : "SCALAR"
        },
        {
            "bufferView" : 4,
            "componentType" : 5126,
            "count" : 4618,
            "max" : [
                1.979248046875,
                10.626686096191406,
                -10.351995468139648
            ],
            "min" : [
                -1.9494010210037231,
                -10.76566219329834,
                -14.812467575073242
            ],
            "type" : "VEC3"
        },
        {
            "bufferView" : 5,
            "componentType" : 5126,
            "count" : 4618,
            "type" : "VEC3"
        },
        {
            "bufferView" : 6,
            "componentType" : 5126,
            "count" : 4618,
            "type" : "VEC2"
        },
        {
            "bufferView" : 7,
            "componentType" : 5123,
            "count" : 17340,
            "type" : "SCALAR"
        },
        {
            "bufferView" : 8,
            "componentType" : 5126,
            "count" : 288,
            "max" : [
                1.8338299989700317,
                10.118929862976074,
                -8.069186210632324
            ],
            "min" : [
                -1.8338309526443481,
                -4.930188179016113,
                -12.666043281555176
            ],
            "type" : "VEC3"
        },
        {
            "bufferView" : 9,
            "componentType" : 5126,
            "count" : 288,
            "type" : "VEC3"
        },
        {
            "bufferView" : 10,
            "componentType" : 5126,
            "count" : 288,
            "type" : "VEC2"
        },
        {
            "bufferView" : 11,
            "componentType" : 5123,
            "count" : 744,
            "type" : "SCALAR"
        }
    ],
    "bufferViews" : [
        {
            "buffer" : 0,
            "byteLength" : 142968,
            "byteOffset" : 0
        },
        {
            "buffer" : 0,
            "byteLength" : 142968,
            "byteOffset" : 142968
        },
        {
            "buffer" : 0,
            "byteLength" : 95312,
            "byteOffset" : 285936
        },
        {
            "buffer" : 0,
            "byteLength" : 110208,
            "byteOffset" : 381248
        },
        {
            "buffer" : 0,
            "byteLength" : 55416,
            "byteOffset" : 491456
        },
        {
            "buffer" : 0,
            "byteLength" : 55416,
            "byteOffset" : 546872
        },
        {
            "buffer" : 0,
            "byteLength" : 36944,
            "byteOffset" : 602288
        },
        {
            "buffer" : 0,
            "byteLength" : 34680,
            "byteOffset" : 639232
        },
        {
            "buffer" : 0,
            "byteLength" : 3456,
            "byteOffset" : 673912
        },
        {
            "buffer" : 0,
            "byteLength" : 3456,
            "byteOffset" : 677368
        },
        {
            "buffer" : 0,
            "byteLength" : 2304,
            "byteOffset" : 680824
        },
        {
            "buffer" : 0,
            "byteLength" : 1488,
            "byteOffset" : 683128
        }
    ],
    "buffers" : [
        {
            "byteLength" : 684616,
            "uri" : "data:application/octet-stream;base64,"
        }
    ]
}
