{
    "asset" : {
        "generator" : "Khronos glTF Blender I/O v1.1.46",
        "version" : "2.0"
    },
    "scene" : 0,
    "scenes" : [
        {
            "name" : "Scene",
            "nodes" : [
                0,
                1,
                2
            ]
        }
    ],
    "nodes" : [
        {
            "name" : "Light",
            "rotation" : [
                0.16907575726509094,
                0.7558803558349609,
                -0.27217137813568115,
                0.570947527885437
            ],
            "translation" : [
                4.076245307922363,
                5.903861999511719,
                -1.0054539442062378
            ]
        },
        {
            "name" : "Camera",
            "rotation" : [
                0.483536034822464,
                0.33687159419059753,
                -0.20870360732078552,
                0.7804827094078064
            ],
            "translation" : [
                7.358891487121582,
                4.958309173583984,
                6.925790786743164
            ]
        },
        {
            "mesh" : 0,
            "name" : "Wall_Modular_Cube.005",
            "rotation" : [
                0.7071068286895752,
                0,
                0,
                0.7071067094802856
            ]
        }
    ],
    "materials" : [
        {
            "doubleSided" : true,
            "emissiveFactor" : [
                0,
                0,
                0
            ],
            "name" : "Wall_Dark",
            "pbrMetallicRoughness" : {
                "baseColorFactor" : [
                    0.15678800642490387,
                    0.11742699891328812,
                    0.07641299813985825,
                    1
                ],
                "metallicFactor" : 0,
                "roughnessFactor" : 0.6732679605484009
            }
        },
        {
            "doubleSided" : true,
            "emissiveFactor" : [
                0,
                0,
                0
            ],
            "name" : "Wall_Medium",
            "pbrMetallicRoughness" : {
                "baseColorFactor" : [
                    0.14757299423217773,
                    0.10006199777126312,
                    0.06166499853134155,
                    1
                ],
                "metallicFactor" : 0,
                "roughnessFactor" : 0.6732679605484009
            }
        },
        {
            "doubleSided" : true,
            "emissiveFactor" : [
                0,
                0,
                0
            ],
            "name" : "Wall_Highlights",
            "pbrMetallicRoughness" : {
                "baseColorFactor" : [
                    0.22480499744415283,
                    0.17640900611877441,
                    0.12417399883270264,
                    1
                ],
                "metallicFactor" : 0,
                "roughnessFactor" : 0.6732679605484009
            }
        }
    ],
    "meshes" : [
        {
            "name" : "Wall_Modular_Cube.005",
            "primitives" : [
                {
                    "attributes" : {
                        "POSITION" : 0,
                        "NORMAL" : 1
                    },
                    "indices" : 2,
                    "material" : 0
                },
                {
                    "attributes" : {
                        "POSITION" : 3,
                        "NORMAL" : 4
                    },
                    "indices" : 5,
                    "material" : 1
                },
                {
                    "attributes" : {
                        "POSITION" : 6,
                        "NORMAL" : 7
                    },
                    "indices" : 8,
                    "material" : 2
                }
            ]
        }
    ],
    "accessors" : [
        {
            "bufferView" : 0,
            "componentType" : 5126,
            "count" : 2000,
            "max" : [
                1.0009299516677856,
                0.21903599798679352,
                1.0020840167999268
            ],
            "min" : [
                -0.9998080134391785,
                -0.21903599798679352,
                -1.003309965133667
            ],
            "type" : "VEC3"
        },
        {
            "bufferView" : 1,
            "componentType" : 5126,
            "count" : 2000,
            "type" : "VEC3"
        },
        {
            "bufferView" : 2,
            "componentType" : 5123,
            "count" : 3294,
            "type" : "SCALAR"
        },
        {
            "bufferView" : 3,
            "componentType" : 5126,
            "count" : 540,
            "max" : [
                0.9970340132713318,
                0.1838109940290451,
                0.6404520273208618
            ],
            "min" : [
                -0.6247209906578064,
                -0.1838109940290451,
                -0.6856409907341003
            ],
            "type" : "VEC3"
        },
        {
            "bufferView" : 4,
            "componentType" : 5126,
            "count" : 540,
            "type" : "VEC3"
        },
        {
            "bufferView" : 5,
            "componentType" : 5123,
            "count" : 864,
            "type" : "SCALAR"
        },
        {
            "bufferView" : 6,
            "componentType" : 5126,
            "count" : 586,
            "max" : [
                1.0009299516677856,
                0.21903599798679352,
                1.0020840167999268
            ],
            "min" : [
                -0.9998080134391785,
                -0.21903599798679352,
                -1.003309965133667
            ],
            "type" : "VEC3"
        },
        {
            "bufferView" : 7,
            "componentType" : 5126,
            "count" : 586,
            "type" : "VEC3"
        },
        {
            "bufferView" : 8,
            "componentType" : 5123,
            "count" : 858,
            "type" : "SCALAR"
        }
    ],
    "bufferViews" : [
        {
            "buffer" : 0,
            "byteLength" : 24000,
            "byteOffset" : 0
        },
        {
            "buffer" : 0,
            "byteLength" : 24000,
            "byteOffset" : 24000
        },
        {
            "buffer" : 0,
            "byteLength" : 6588,
            "byteOffset" : 48000
        },
        {
            "buffer" : 0,
            "byteLength" : 6480,
            "byteOffset" : 54588
        },
        {
            "buffer" : 0,
            "byteLength" : 6480,
            "byteOffset" : 61068
        },
        {
            "buffer" : 0,
            "byteLength" : 1728,
            "byteOffset" : 67548
        },
        {
            "buffer" : 0,
            "byteLength" : 7032,
            "byteOffset" : 69276
        },
        {
            "buffer" : 0,
            "byteLength" : 7032,
            "byteOffset" : 76308
        },
        {
            "buffer" : 0,
            "byteLength" : 1716,
            "byteOffset" : 83340
        }
    ],
    "buffers" : [
        {
            "byteLength" : 85056,
            "uri" : "data:application/octet-stream;base64,"
        }
    ]
}
